<svg version="1.2" xmlns="http://www.w3.org/2000/svg" viewBox="0 0 1228 264">
	<title>logo-ai</title>
	<style>
		.s0 { fill: currentColor; } 
	</style>
	<g id="Слой 1">
		<filter id="f0">
			<feFlood flood-color="currentColor" flood-opacity="1" />
			<feBlend mode="normal" in2="SourceGraphic"/>
			<feComposite in2="SourceAlpha" operator="in" />
		</filter>
		<g id="&lt;Group&gt;" filter="url(#f0)">
			<path id="&lt;Path&gt;" className="s0" d="m116.6 28.7c3.9-5.5 7.8-10.9 11.7-16.4 1.4-1.9 2.7-3.4 5.5-3.4 16.1-0.1 32 1.8 47.6 5.4 0.5 0.1 0.8 0.5 1.8 1.1q-2.5 3.6-5 7.1c-2 3-1 4.7 2.2 5.5 5.2-2.8 5.6-12.1 14.6-10.2 0.5 4.1 1.1 7.9 1.4 11.8 0.4 3.5 0.3 7 0.7 10.4 1.7 12.4 1.3 13.7-7.8 23.2-1.8-1.2-3.7-2.4-5.6-3.6-1.7-1.2-3.2-2.5-5.2-3.9 2.6-3.8 4.9-7.1 7.3-10.4q-0.6-0.5-1.1-1c-2 2.1-4.2 4.1-6.2 6.3-2.2 2.6-4.5 3.7-7.8 1.7-3.4-1.9-6.8-3.9-10.5-5.1-2.9-0.9-6.3-0.6-9.4-1.2-13.9-2.4-27.7-2.4-41.5 1.1-9.8 2.6-18.3 7.7-26.1 14-1-1-1.7-1.7-2.6-2.7-6.6 10-13.1 19.7-20.3 30.8 2.4-1.4 3.3-1.9 4.9-2.9-0.6 2.4-1 4.3-1.6 6.1-3.3 10.2-5 20.7-5.6 31.4-0.9 16 0.5 31.5 5.3 46.7 1 3.2 0.6 5.9-1.3 8.5-1.5 2.2-2.7 4.6-4 6.8q0.6 0.4 1.2 0.8c2-2.4 4.1-4.8 6.7-7.9 2.3 4.1 4.6 7.9 6.7 11.9 1.5 2.8-0.6 4.9-2.1 6.8-4.8 6.6-9.8 13-14.8 19.4-2.6 3.5-5.1 7-7.9 10.7-7.2-4.5-11.2-10.7-15.9-16.4 1-2.4 1.9-4.5 2.8-6.6q-0.3-0.3-0.7-0.6c-1.3 1.1-2.7 2.3-4.7 3.9-2.7-4.7-5.5-8.9-7.7-13.4-7.2-14.3-11.3-29.5-12.4-45.4-0.3-4.9-0.8-9.7-0.9-14.6 0-1.8 0.4-3.9 1.4-5.2 10.9-15.3 22.1-30.4 33-45.6 6.4-8.9 12.5-17.9 18.7-26.9 0.8-1.2 1.4-2.4 2.3-3.5 9.8-12.4 19.7-24.7 29.5-37.1 0.8-0.9 1.3-2 1.7-2.6 8.9 3.4 9.2 4 7.7 11.6 1.1-1.5 2.2-2.9 3.2-4.4 1.2-1.7 2.4-3.4 3.4-5.3 2.1-4.3 5.2-6.8 10.4-6.1 1.9 0.3 3.9 0.1 7.1 0.1-4.2 6.6-7.8 12.4-11.4 18.2q0.6 0.5 1.3 1.1z"/>
			<path id="&lt;Path&gt;" className="s0" d="m884.3 148.6c-3.5 5-6.5 9.4-9.5 13.8 5.2-2.1 6.5-7.7 10.9-11.1 7.4 9.2 15.6 17.3 28 20.6-1.9 2.9-3.2 5-4.6 7.1-3.4 5-7 9.9-10.4 14.9-1.5 2.2-3.1 3.2-5.8 2.1-10.3-4.3-20.4-8.8-27.9-17.7-3.4-3.9-7.4-7.3-11-11.1-1.7-1.9-2.9-4.2-4.4-6.4 4.6-6.8 9.2-13.4 13.7-20-6.9 3.5-10.5 9.9-15.5 15.8-5.4-7.4-7.7-15.2-9.1-23-1.8-9.6-2.3-19.3-2.9-29.1-0.1-2.2 1-5 2.5-6.8 14.6-17.4 29.5-34.6 44-52.1 4-4.7 6.9-10.3 10.3-15.6 2.4-3.7 4.5-7.5 7.2-11 0.9-1.4 2.8-2.4 4.5-2.7 5.4-1.2 10.9-2.5 16.4-2.8 13.9-0.6 27.8-1.4 42 2-1.3 5.3-4.5 9.3-7 13.6-1.7 2.8-3.9 5.3-5.5 8.1-1.9 3.4-4.2 3.8-8.1 3.4-17.2-1.8-33.3 0.9-47 12.6-11.4 9.7-17 22.5-19.2 36.9-3 20.2-1 39.8 8.4 58.5z"/>
			<path id="&lt;Path&gt;" className="s0" d="m188.9 132.4c7.1 4.8 10.1 11.7 11.1 19.5 0.2 1.8-1 4-2.1 5.5-4.4 6-9.1 11.8-13.7 17.7-1.5 1.9-2.8 4-4.3 6q0.6 0.4 1.2 0.9 9.2-10.2 18.5-20.5 0.7 0.2 1.4 0.4c-0.2 4.2-0.2 8.5-0.7 12.6-0.8 7.1-1.9 14.1-1.2 21.4 0.3 2.2-0.9 4.9-2.2 6.9-6.1 9.2-12.6 18.3-18.9 27.4-2.6 3.6-5.2 7.2-7.4 11-2.9 4.8-6.8 8-12.2 9.7-8.3 2.6-16.7 3.9-25.3 4.1-17.1 0.4-33.9-0.7-50.1-6.7-6.1-2.2-12.2-4.2-17.7-8.4 3.3-6.3 6.6-12.4 9.8-18.5q-0.6-0.4-1.1-0.9c-2.2 2.6-4.4 5.1-6.5 7.8-2.3 2.8-4.5 5.8-7 9.1-2.7-1.8-5-3.3-7.4-4.9 6.6-13 16.8-22.7 25.2-34.5 11.7 12.5 25.7 19.3 42.7 21.2-0.8 2.1-1.3 3.5-1.9 4.9 0.4 0 1 0.2 1.1 0.1 3.6-3.8 7.6-5.2 13-5.3 15.5-0.4 30.4-14.5 32.9-30.3 0.9-6 1.1-11.9-1.7-17.6-0.6-1.2-0.6-3.4 0.2-4.5 7.9-11.4 16.1-22.7 24.3-34.1z"/>
			<path id="&lt;Path&gt;" className="s0" d="m513.8 107.2c4.4-5 8.8-10 13.1-15 2.4-2.8 4.4-5.9 7.2-9.7 0.8 2.1 1.3 3.4 1.7 4.5 20 0 39.9 0 60.7 0-1.8 13.8-4.5 27.8-7.2 42.7-2.4-3.2-4-6.1-6.2-8.3-3.4-3.4-7.3-5.8-12.5-6.6-11.6-1.8-23.1-0.7-35.1-0.9-0.1 2.9-0.3 5.1-0.3 7.4 0 14.2-0.1 28.4 0 42.6 0.1 3.7-0.9 6.7-3.1 9.7-5 6.6-10.1 13.3-14.9 20.1-2.9 4.2-6.1 6.8-11.5 5.9-2.2-0.4-4.5-0.1-7.7-0.1 0.9-2.3 1.2-3.9 2.1-5.1 8-11.1 16.2-22.1 24.2-33.2 1.5-2.1 2.4-4.7 3.6-7.1q-0.8-0.4-1.5-0.9c-1.3 1.4-2.7 2.7-3.8 4.2-9 12.5-18.1 24.8-26.9 37.4-2.4 3.3-4.6 5.9-9.8 3.9 7-7.5 10.7-16.4 11.9-26.2 0.8-6.9 0.8-13.9 1-20.8q0.2-7 0-14c-0.1-4.9-0.2-9.7 3.9-13.4 0.3-0.4 0.2-1.4 0.2-2l-0.2 0.2c5.8-3.7 8.7-9.6 11.4-15.6z"/>
			<path id="&lt;Path&gt;" className="s0" d="m391.9 214.8c-1.4 2.8-2 4.3-2.9 5.5-3.5 5.2-7.2 10.3-10.6 15.6-2.8 4.5-6.2 6.6-11.9 6.6-13 0.1-26 1-38.9 1.5-2.8 0.1-5.6 0.1-8.7 0.1q-0.5-1.9-1.1-3.6c-0.5 0.1-1.1 0.1-1.3 0.4-2.1 3-4.8 4.8-8.8 4.3-7.4-0.9-14.5 1.4-21.8 1.6-4.9 0.2-9.7 0.7-15.2 1.1 0.6-1.7 0.8-3 1.5-4 5.6-7.7 11.1-15.5 16.8-23.1 1.2-1.4 3.4-2.9 5.1-3 8.2-0.3 16.4-0.1 25.2-0.1-0.7 1.6-1.4 3.1-2.1 4.5 5.6-7.9 14.1-5.1 21.2-5.7 12.7-1 25.5-0.5 38.3-0.7 4.6-0.1 9.2-0.6 15.2-1z"/>
			<path id="&lt;Path&gt;" className="s0" d="m502.9 122.3c-0.9 0.5-1.9 1.1-3.4 1.9-0.2-1.5-0.6-2.7-0.6-3.9-0.1-12.6 0-25.2-0.1-37.7-0.1-3.5 0.9-6.3 2.9-9q15.8-21.7 31.5-43.4c2.8-4 5.4-8.1 8.4-11.9 1-1.3 2.7-3.1 4.2-3.1 10.5-0.2 21.1-0.1 33.2-0.1-6.3 8.7-11.5 16.2-17.2 23.4-1.3 1.6-4.5 2.4-6.8 2.5-6.3 0.3-12.5 0.1-19.3 0.1-0.2 2.2-0.4 4-0.5 5.8-0.1 2.3 0 4.6 0 6.9-0.1 7.5 1.4 15.4-0.9 22.2-2.4 7.2-8.4 13.1-12.8 19.7-2.6 3.8-5.1 7.6-7.7 11.5 0 0 0.3-0.3 0.3-0.3q-5.7 7.8-11.4 15.6c0 0 0.2-0.2 0.2-0.2z"/>
			<path id="&lt;Path&gt;" className="s0" d="m417.3 40.6c4.8 7.1 6.3 13.9 6.8 20.8 0.3 2.6-0.3 5.7-1.7 7.9-6.8 10.5-13.9 20.8-20.9 31.2-5.2 7.6-10.7 15.2-15.9 22.9-5.1 7.4-10 15-15.1 22.5-0.8 1.1-1.7 2.1-3.3 4.1-5.7-9.7-11.2-18.8-16.7-28.1 6.1-7.1 11.8-13.8 17.6-20.4 1.2-1.3 3-2.2 4.7-3 6.4-3.1 10.3-8.5 12.4-15.2 1.1-3.6 2.9-6.4 5.4-9.3 7.6-9 14.6-18.5 21.9-27.8 1.3-1.7 2.9-3.4 4.8-5.6z"/>
			<path id="&lt;Path&gt;" className="s0" d="m290.5 187.2c6.2-12.5 7-25.8 6.6-39.4-0.1-6.5 0-13 0-19.5 0-4.4-0.3-8.8 2.6-12.7 0.8-1.1 0.8-3.2 0.5-4.7-0.8-4.6 1.3-7.9 4.3-11.1 3.7-3.9 7.1-8 10.5-12.1 1.2-1.4 2.2-3.1 2.8-4.8 3.5-9.3 6.3-13 15-19.8 0.2 1.7 0.6 3.2 0.6 4.7 0.1 18.1 0.1 36.2-0.1 54.4 0 2.8-0.6 6.2-2.2 8.5-12.4 18.5-25.1 36.7-37.7 55.1q-0.8 1.1-1.6 2.3-0.6-0.5-1.3-0.9z"/>
			<path id="&lt;Compound Path&gt;" fill-rule="evenodd" className="s0" d="m1115.5 13.1c-0.9 6.3-1.4 11.8-2.4 17.2-2.4 14.1-2.8 28.1 0.4 42.1 4.4 19.6 3.6 39.3 1.1 58.9-2.7 21.3-0.3 42.1 5.3 62.7 0.2 0.9 0.4 1.8 0.7 2.9-5.1 4.8-11.7 4.9-17.6 4.7-15-0.6-28.7-5.6-40.3-15.3-14.8-12.4-23.8-28.6-28.3-47.1-2.8-10.9-5.4-22.3-5.4-33.5 0-23.8 4.2-46.9 21.1-65.4 9.7-10.6 22.1-17.1 36.2-19.6 8.6-1.6 17.5-1.6 25.1-6.9 0.6-0.5 1.7-0.3 4.1-0.7zm-15.6 10.2c-3.8 0.4-7 0.6-10.1 1.1-22.1 4.2-38.4 16-47.6 36.8-8.1 18.5-10.1 37.9-7.3 57.9 2.5 18 7.5 35 18.1 49.9 13.4 18.6 31.3 28.8 54.7 27.7 2.4-0.2 4.8-0.9 7.3-1.4-0.3-1.5-0.4-2.1-0.5-2.8-5.7-21.8-6.7-43.9-4.1-66.3 2-16.9 2.8-33.8-1.1-50.6-3.1-13.5-3.2-27.1-1.5-40.8 0.5-4.6 1.1-9.3 1.6-13.9q-0.8-0.2-1.5-0.5c-0.9 1.5-2.1 2.8-2.7 4.4-5.9 15.4-8.3 31.3-4.9 47.7 2.6 12.3 4 24.7 3.1 36.1-2.1-10.9-4.3-23-6.6-35-2.3-11.3-2.4-22.6-0.3-33.9 0.9-5.2 2.1-10.3 3.4-16.4z"/>
			<path id="&lt;Compound Path&gt;" fill-rule="evenodd" className="s0" d="m1116.7 13c2.5 0.6 4.3 0.6 5.5 1.4 6.4 3.9 13.6 4.5 20.6 5.8 28.9 5.4 47.1 22.7 55.8 50.4 4 12.8 4.7 25.9 4.4 39.2-0.3 13.6-1.6 26.8-5.3 39.9-3.7 12.9-9.4 24.9-18.7 34.6-13.2 13.6-29.1 20.3-48.5 16.6-5.7-1.1-8.8-3.7-9.8-9.7-2.7-16.1-4.7-32.2-4-48.5 0.4-8.1 1.7-16.1 2.7-24.2 2.1-15.8 0.7-31.4-2.1-47.1-2.9-15.8-3.2-31.8-1.3-47.8 0.4-3.2 0.4-6.4 0.7-10.6zm17.4 83.9c-0.8-8-0.8-16-2.5-23.6-3.5-16.2-7.1-32.3-5.3-49 0.4-3.7-2-4.5-5.1-4.6-2.5 16.4-2.8 32.5 0.3 48.3 4 20.5 4.3 41 1.5 61.7-2.8 20.4-1.6 40.8 2.7 61 0.7 3.5 2.3 5 5.7 5.8 9.3 2.3 18 0.9 26.5-2.8 14.9-6.6 24.3-18.4 30.8-32.8 5.4-12 7.8-24.8 9.2-37.8 2-19.2 1.3-38.1-5.4-56.3-6.7-18.2-18.8-31.4-37-38.5-7.7-3-15.7-5.6-24.4-4.7-2.2 13.7-0.3 26.7 2.5 39.7 2.4 11.2 3.4 22.3 0.5 33.6z"/>
			<path id="&lt;Path&gt;" className="s0" d="m907.8 245c2.9-4.5 5.1-8.3 7.4-11.9 3.2-4.8 6.3-9.7 9.7-14.3 0.9-1.3 3-2.4 4.5-2.4 7.7 0 15.3 0.4 23 0.6q5.9 0.2 11.8 0.2 16.8 0 33.5 0c2.3 0 4.5 0 7.8 0-1.3 2.4-2 3.8-2.8 5-4.2 6.7-8.6 13.3-12.8 20-2.2 3.5-4.9 5-9.1 4.9-15.8-0.4-31.7-0.3-47.5-0.6-8.1-0.2-16.1-0.9-25.5-1.5z"/>
			<path id="&lt;Path&gt;" className="s0" d="m1113.5 250.7q7.1-10.5 14.3-21-0.4-0.4-0.8-0.8c-1 0.9-2 1.8-2.9 2.8-4.4 5.2-9.2 10-12.8 15.6-3.2 4.8-7.1 5.4-11.9 4.7-1.4-0.1-2.7-0.7-4.9-1.4 6.2-11.7 14.3-21.7 21.2-32.8 23.8-0.9 48.1 3 70.5-9.1q0.3 0.6 0.6 1.2c-3.8 5.1-7.6 10.2-11.4 15.3-6.2 8.4-12.5 16.8-18.9 25-1.1 1.5-3.2 3.2-4.8 3.2-12.5-0.1-25-0.6-37.4-1q-0.4-0.9-0.8-1.7z"/>
			<path id="&lt;Path&gt;" className="s0" d="m327.7 13.2c-4.1 6.4-7.5 11.7-10.9 17q0.9 0.8 1.8 1.5c0.5-1 1-2 1.6-2.9 2.5-4 5.8-6.4 10.9-5.4 1.3 0.3 3.2-0.6 4.2-1.6 2.3-2.5 4.3-5.3 6.7-8.4 3.7 0 7.9 0 12.1 0-2.1 7.5-14.7 23.9-19.9 26.1-0.9 2.7-1.4 5.5-2.8 7.9-9.5 16.4-21.6 31.1-33.8 47.6-0.2-3.2-0.5-4.9-0.5-6.7 0-9.7 0.1-19.5 0-29.3-0.2-6.7-0.5-13.4-1.1-20.1-0.4-3.6 0-6.7 2.3-9.7 3.2-4 6-8.3 8.9-12.6 1.5-2.3 3.2-3.7 6.2-3.5 4.4 0.2 8.8 0.1 14.3 0.1z"/>
			<path id="&lt;Path&gt;" className="s0" d="m564.8 213c-0.8 1.5-1.2 2.5-1.8 3.4-4.7 6.1-9.5 12.1-14.1 18.2-2.3 3.1-5 4.3-8.8 4.1-6.1-0.3-12.1-0.2-18.2 0-8.4 0.2-16.7 0.7-25.1 0.8-8.5 0.2-17 0.1-25.6 0-0.8 0-1.7-0.3-2.4-0.5-0.1-0.8-0.3-1.4-0.1-1.6 5.4-7 10.9-13.8 16.3-20.8 2-2.6 4.3-4 7.7-3.6 3.2 0.4 6.4 0.5 9.6 0.7 0.4 0 0.9 0.5 1.2 0.4 14-4.4 28.2-1 42.3-2 4.6-0.3 9.3-0.1 13.9 0 1.6 0.1 3.1 0.5 5.1 0.9z"/>
			<path id="&lt;Path&gt;" className="s0" d="m618.2 151.4c-1.1 3.2-1.5 6.7-3.3 9.5-7.6 11.9-15.7 23.6-23.5 35.4-1.4 2.1-2.9 3.3-5.6 3.3-21.8-0.2-43.7-0.1-65.5-0.2-0.6 0-1.2-0.4-2.7-0.9 2.7-3.3 5-6.2 7.4-9.2 3.2-4 6.6-7.8 9.6-11.9 1.8-2.6 3.9-3.6 7-3.6 7.9 0.2 15.9 0.3 23.8 0 12.9-0.4 25.5-2.8 36.4-10.1 5.4-3.5 10-8.2 14.9-12.4q0.7 0.1 1.5 0.1z"/>
			<path id="&lt;Path&gt;" className="s0" d="m370.3 154.7c7.2-9.1 14.3-18 22-27.6 10.1 16 19.9 31.4 30.2 47.6-5.5 7.3-11.3 15.4-17.4 23.2-2.4 3-5 3.2-10.7 2.5-8.1-15.4-15.9-30.3-24.1-45.7z"/>
			<path id="&lt;Path&gt;" className="s0" d="m827 224.3c1.1-0.7 2.6-1.2 3.2-2.2 3.3-5.6 8.2-6.6 14.2-6.4 10.3 0.4 20.5 0.1 30.7 0.1 2.3 0 4.6 0 8.1 0-7.1 9.9-13.6 18.8-20.3 28-10.6 0-21.5 0-32.2 0-0.5-1.4-0.9-2.5-1-2.6-3.1 0.9-6 2.4-9 2.4-8.5 0.1-17.1-0.5-25.7-0.8-1.1 0-2.3-0.2-4.2-0.3 0.8-1.7 1.2-3.2 2-4.4 4.8-6.5 9.8-13 14.5-19.6 2-2.7 4.4-3.9 7.7-3.6 5.3 0.5 10.5 0.9 16.3 1.4-1.5 3-2.9 5.6-4.2 8.2q-1.8 1.6-3.5 3.2 0.7 0.5 1.4 1 1-2.2 2-4.4z"/>
			<path id="&lt;Path&gt;" className="s0" d="m676.2 221.7c-3.2-1.5-6.5-3.1-10.5-5-4.2 5.4-9.3 11.4-13.7 17.8-3 4.3-6.5 5.8-11.7 5.7-19.8-0.5-39.5-0.5-59.3-0.7-1.7 0-3.5-0.3-6.1-0.5 1-2.1 1.5-3.6 2.4-4.7 4.4-5.7 9.1-11.2 13.3-17 2.3-3.2 4.8-4.7 8.7-4.3 2.9 0.2 5.9 0 9.9 0-2.9 5.5-5.2 10.1-7.5 14.6q0.6 0.4 1.3 0.8c2.9-3.7 5.8-7.4 8.7-11.1 1.9-2.4 3.9-4.4 7.4-4.3 18.6 0.3 37.2 0.4 55.8 0.6 0.7 0 1.3 0.5 2.2 0.9q-0.5 3.7-1 7.4z"/>
			<path id="&lt;Path&gt;" className="s0" d="m757.1 139.4c4.4-5.4 8.8-10.7 13-16.2 3-3.8 5.7-7.9 9.2-12.7 2.7 3.9 5.2 7.3 7.8 11-8.2 12.3-16.1 24.3-24.1 36.3-8.8 13.1-17.8 26-26.5 39.2-2.3 3.6-5 5.4-9.2 4.8-4.1-0.6-8.8 1.8-12.5-1.8-0.3-0.3-1.3-0.1-1.9 0.1-5.6 1.7-10.9-0.6-16.9-1.6 1.2-2.2 1.9-4.1 3.1-5.7 3.8-4.9 8-9.6 11.8-14.6 2.1-2.9 4.5-4.3 8.2-3.9 3.2 0.3 6.5 0 9.8 0 0.4 1.3 0.8 2.3 0.9 2.7 2.9-1.3 5.6-3.1 8.5-3.8 10.3-2.7 18.8-9.5 17.8-23.1-0.2-3.6 0.8-7.3 1.3-10.9z"/>
			<path id="&lt;Path&gt;" className="s0" d="m225 219c18.3 0 35.9 0 54.7 0-7.8 8.7-15.2 16.3-21.8 24.5-4.4 5.5-9.8 7.1-16.2 7.3-8.4 0.3-16.7 1.2-25 1.2-5 0-9.9-1.2-16-2.1 8.7-11 16.5-21 24.3-30.9z"/>
			<path id="&lt;Path&gt;" className="s0" d="m10.9 118.9c-0.5-42.7 32.1-89.2 69.7-100.4-1.8 3.1-3.1 5.4-4.6 7.5q-28.1 40.7-56.4 81.4c-2.8 3.9-5.8 7.7-8.7 11.5z"/>
			<path id="&lt;Path&gt;" className="s0" d="m694.8 104.2c7.3-10.2 14.1-19.6 20.6-28.5 13.8 6.5 27.1 12.7 41.1 19.3-5.9 10.4-14.3 18.7-20.9 29-14-5.9-28.1-10.3-40.8-19.8z"/>
			<path id="&lt;Path&gt;" className="s0" d="m798.1 216.2c-6.8 8.1-13.6 16.3-20.6 24.3-0.9 1-2.7 1.7-4.2 1.8-7.4 0.1-14.8 0.1-23.4 0.1 2.3-4.1 4.2-7.4 6.2-11.1-2.2-1.2-4.1-2.3-6.6-3.7-1.4 1.4-2.9 2.9-4.3 4.3-3.7 3.5-5.6 10.2-12.9 7.3-5.4 4.3-11.5 1.4-18.3 2.3 1.4-2.5 2-4.2 3.1-5.6 4.4-6 9-11.8 13.4-17.8 1.8-2.5 3.7-3.8 6.9-3.7 20 0.1 40 0 60 0q0.4 0.9 0.7 1.8z"/>
			<path id="&lt;Path&gt;" className="s0" d="m745.9 199.5c6.7-9.4 7.9-20.2 13.3-28.9 7.3-11.6 15.1-22.8 22.8-34.2 1.9-2.8 4.1-5.4 6.9-9.1 5.5 17.3 5.3 33-3.7 47.8-8.8 14.4-22.2 21.7-39.3 24.4z"/>
			<path id="&lt;Path&gt;" className="s0" d="m1102.8 219.4q-10.1 12.3-20.2 24.6c-0.3 0.3-0.8 0.5-1 0.9-2.9 6.4-8.4 6.2-14.1 5.9-6.4-0.4-12.9-0.6-19.4-1-2-0.1-4-0.4-7.3-0.8 6.6-11 12.6-21 18.7-31.3 3.8 0.8 7.7-1.6 11.3 1.5 0.7 0.6 3.2-1.4 4.8-1.4 8.8-0.2 17.5-0.1 26.3-0.1q0.5 0.9 0.9 1.7z"/>
			<path id="&lt;Path&gt;" className="s0" d="m690 100c-1.9-1.7-3.1-2.7-4.2-3.9-6.4-7.2-6.6-8.3-1.2-16.2 6.1-8.8 12.7-17.2 18.8-25.9 8.4-12 16.7-24 24.7-36.2 2.4-3.6 4.9-5.1 9.1-4.7 3.6 0.3 7.3 0.1 12 0.1-5.2 9.5-10.4 17.9-16.9 25.4-1.4 1.6-4.5 1.9-6.8 2.6-7.3 2.1-13.4 5.8-15 13.8-0.6 3.3-0.2 6.9 0.3 10.3 0.6 3.9 0.3 6.9-2.5 10.2-5.1 6-9.4 12.6-14.1 19-1.2 1.6-2.5 3.2-4.2 5.5z"/>
			<path id="&lt;Path&gt;" className="s0" d="m989.2 147.1c-2 14.8-4 29.7-6 44.7-14.9 4.7-29.3 9.1-45.9 9 3.4-5.3 6.1-9.5 8.9-13.7 1.5-2.3 3.3-4.5 4.6-6.9 3.7-6.3 8-11.5 15.1-14.6 9.1-4 15.4-11.7 23.3-18.5z"/>
			<path id="&lt;Path&gt;" className="s0" d="m441.7 214.5c-0.2 0.5-0.3 1.5-0.8 2.2-5.7 6.9-11.7 13.8-17.3 20.9-3.1 3.8-7.4 2.6-11 2.9-9 0.9-18 0.7-27 0.9-0.9 0-1.8-0.3-3-0.5 0.2-5.3 4.7-8.3 6.4-12.6 0.3-0.6 1-1 1.4-1.6 3-3.8 5.1-9 9-11.2 3.7-2 9.1-1 13.7-1 9.5-0.1 18.9 0 28.6 0z"/>
			<path id="&lt;Path&gt;" className="s0" d="m676.1 221.9c1.3-1.6 3-3 4-4.7 2.1-3.3 4.9-4.1 8.4-3.7 4.8 0.6 9.5 1.6 14.3 1.8 4.6 0.1 9.2-0.6 13.8-0.9 1.8-0.1 3.7 0 6.4 0-1 2.3-1.4 4.1-2.4 5.5-3.6 5.4-7.6 10.5-11.1 16-2.6 3.9-5.6 6-10.4 5.2-2.7-0.4-5.6-0.1-9.7-0.1 2.2-3.8 3.7-6.7 5.4-9.6 1.7-2.7 3.5-5.3 5.2-7.9q-0.7-0.5-1.4-1c-3.1 4.3-6.6 8.5-9.3 13.1-2.4 4.1-5.5 5.7-10.2 5.4-5.3-0.3-10.5 0-15.8 0q-0.4-0.8-0.7-1.6 6.8-8.8 13.6-17.7c0 0-0.1 0.2-0.1 0.2z"/>
			<path id="&lt;Path&gt;" className="s0" d="m159.4 164.5c-9-6.5-17.6-5.3-27.5-1.4 1-2.6 1.2-4.2 2-5.3 8.5-10.7 17-21.4 25.6-32 1.1-1.2 3.2-2.1 4.8-2.1 6.8-0.2 13.3 1.1 19.9 5.4-8.2 11.7-16.3 23.2-24.8 35.4z"/>
			<path id="&lt;Path&gt;" className="s0" d="m534.3 15c-7 13-30.1 45.2-35.2 49.2-0.1-2-0.3-3.5-0.2-5 0.3-10-0.6-19.9-4.1-29.4-1-2.9-0.6-5.4 1.6-7.7 1.4-1.5 2.4-3.4 3.9-4.8 1.1-1.1 2.7-2.1 4-2.2 9.7-0.1 19.4-0.1 30-0.1z"/>
			<path id="&lt;Path&gt;" className="s0" d="m568.2 40.1c1-1.9 1.5-2.9 2.2-3.7 4.3-5.8 8.5-11.5 13-17.1 1.7-2.1 3-4.6 6.4-4.8 5.7-0.2 11.5-0.8 17.2-1.2 0.5 0.7 1.4 1.2 1.3 1.7-0.9 6.9 1.9 13.4 2 20.3 0.2 7.6 0.3 7.8-4.9 14.4-5.9-2.3-11.7-5.3-17.8-6.9-6-1.6-12.4-1.8-19.4-2.7z"/>
			<path id="&lt;Path&gt;" className="s0" d="m1219.6 183.6c0.4 7.8-3.1 16.1-8.9 24-9.5 13-18.2 26.4-27.2 39.7-1.9 2.8-4.3 4.9-7.8 5.2-2.7 0.3-5.4 0.6-9 0.9 0.6-1.8 0.7-3.4 1.4-4.5 9.7-15.1 19.5-30.1 29.2-45.1 0.7-0.9 1.3-1.9 2.2-2.7 6.9-6.1 14-12.1 20.1-17.5z"/>
			<path id="&lt;Path&gt;" className="s0" d="m675.8 73.9c-1.9-11.2-2.4-21 4.8-29.8 3.5-4.3 6.8-8.8 9.8-13.4 5.5-8.4 13.7-11.9 23-14.5-1.2 5.7-30.1 50.4-37.6 57.7z"/>
			<path id="&lt;Path&gt;" className="s0" d="m672.9 148.7c7.7 9.5 16.7 17.3 28.4 22-3.7 9.5-10.4 16.3-15.6 24.1-8.7-1.5-10.1-2.7-10.7-10.8-0.5-7.1-0.1-14.3-0.8-21.4-0.4-4.4-2-8.8-3.1-13.2q0.9-0.3 1.8-0.7z"/>
			<path id="&lt;Path&gt;" className="s0" d="m838.2 93.6c0-28.3 19.9-58.6 44.6-68.7-15.3 23.6-29.9 46.1-44.6 68.7z"/>
			<path id="&lt;Path&gt;" className="s0" d="m1056.1 217.7c-8.8 10.8-16.3 20.3-24.1 29.6-1 1.2-3.2 2-4.8 1.9-4.8-0.1-9.5-0.7-14.9-1.2 1.2-2.2 2.1-4.1 3.3-5.7 5-7.3 10.1-14.4 15.1-21.7 1.2-1.8 2.5-3 5-3 6.2 0.2 12.4 0.1 20.4 0.1z"/>
			<path id="&lt;Path&gt;" className="s0" d="m982.5 62.8c-7.4-9.7-17-16.3-29.2-20.2 3-4 5.5-7.3 8-10.5 3-3.8 6.2-7.5 9.1-11.4 1.5-2.1 2.9-3.3 5.7-2.5 3 0.7 4.2 2.5 4.4 5.3 0.7 7.9 1.3 15.7 1.9 23.5 0.4 5.1 0.9 10.1 1.4 15.1q-0.7 0.4-1.3 0.7z"/>
			<path id="&lt;Path&gt;" className="s0" d="m950.6 172.9c-6.1 9.3-11.6 18.1-17.5 26.6-1 1.4-3.6 2.3-5.4 2.2-5.9-0.2-11.9-0.9-19.1-1.4 4.8-9.5 9.9-17.8 15.1-26.2 3.2 0.1 6.1 0.3 10.3 0.5-2.6 5.1-5 9.7-7.4 14.2q0.4 0.3 0.7 0.6c1-1 2.1-1.8 2.9-3 1.3-1.9 2.6-3.9 3.5-6 3.3-7.1 9.3-7.7 16.9-7.5z"/>
			<path id="&lt;Path&gt;" className="s0" d="m438.4 239.5c3.3-5.4 5.7-9.2 8.1-13.1 2.6-4.1 4.3-9.7 8-11.9 3.7-2.2 9.4-1.1 14.2-1.3 3.4-0.2 6.8 0 11.7 0-2.6 3.5-4.4 6.1-6.2 8.6-3.5 4.9-6.9 9.9-10.5 14.7-0.9 1.2-2.3 2.8-3.5 2.8-6.6 0.3-13.2 0.2-21.8 0.2z"/>
			<path id="&lt;Path&gt;" className="s0" d="m899.3 216.6c6.9 0 13.5 0 21.1 0-1 2.1-1.4 3.8-2.4 5.2-4.8 6.8-9.8 13.4-14.6 20.3-1.7 2.3-3.5 3.3-6.4 3.2-4.4-0.3-8.7-0.1-14-0.1 4.6-10.9 10.5-19.7 16.3-28.6z"/>
			<path id="&lt;Path&gt;" className="s0" d="m146.8 124.2c-10.4 16-20.3 31.5-30.3 46.9q-0.5-0.1-1-0.3c0.8-7.5 2.4-15 2.1-22.5-0.2-9.9 6.3-16.1 10.7-23.6 0.7-1.1 2.7-2 4.1-1.9 4.5 0.1 9 0.8 14.4 1.4z"/>
			<path id="&lt;Path&gt;" className="s0" d="m757.4 139.2c-1.5-0.4-3.4-0.3-4.4-1.2-3.3-3.1-6.3-6.6-9.8-10.4 5.5-10.3 15.4-17.4 21.9-27.5 4.9 1.7 8.3 4.8 12 8.6-4.9 6.8-9.7 13.2-14.1 19.9-2.3 3.4-4 7.2-5.9 10.8 0 0 0.3-0.2 0.3-0.2z"/>
			<path id="&lt;Path&gt;" className="s0" d="m288.1 195.5c1-1.7 1.5-3.3 2.5-4.4 10-11.2 20-22.2 30-33.3 3.8-4.2 7.7-8.3 12.3-13.4 0.8 7.4 1.2 13-3.9 18.3-8.4 8.6-16.5 17.6-23.9 27.1-4.3 5.4-8.8 7.8-17 5.7z"/>
			<path id="&lt;Path&gt;" className="s0" d="m333.1 162.9c1.3 8.8 2.1 17.7 7 25.2-4.2 8.3-5.1 8.7-13.4 8.2-5.9-0.4-11.8-0.1-19-0.1 8.5-11.9 16.2-22.8 24-33.7q0.7 0.2 1.4 0.4z"/>
			<path id="&lt;Path&gt;" className="s0" d="m383.8 52.3c-4.3-3.8-8.3-7.2-13-11.3 5.9-7.6 11.9-15.4 18.2-23.7 4.7 2.4 9.4 4.8 14.3 7.3-6.8 9.6-13.1 18.6-19.5 27.7z"/>
			<path id="&lt;Path&gt;" className="s0" d="m182.1 238.4c4.8-12.1 14.5-19.8 20.5-30.6 3.4 3 6.2 5.5 9.7 8.7-6.1 9.6-12.3 19.4-19 29.9-3.9-2.8-7.2-5.2-11.2-8z"/>
			<path id="&lt;Path&gt;" className="s0" d="m756.9 40.1c6.5-7.5 13-14.9 19.6-22.4 2.7 4.8 5.3 30.5 4.1 41.5-2.6-2.7-4.8-5.7-7.7-7.9-3.5-2.9-7.6-5.1-11.4-7.7-1.6-1-2.9-2.4-4.4-3.7z"/>
			<path id="&lt;Path&gt;" className="s0" d="m1027 218c-7.1 10.5-13.7 20.2-20.6 30.5-3.5-0.2-7.3-0.5-12.3-0.8 1.7-2.8 2.7-4.8 3.9-6.7 3.7-5.9 7.7-11.6 11.1-17.7 2.7-5 6.4-7.1 11.9-5.7 1.5 0.3 3.1 0.2 6 0.4z"/>
			<path id="&lt;Path&gt;" className="s0" d="m757.1 39.9c-5.1 2.3-9.8-1-15.6-0.3 1.2-2.4 1.8-4.1 2.8-5.5 4.2-5.9 8.4-11.7 12.8-17.3 1-1.2 3.2-2.1 4.7-2 3.2 0.2 6.2 1.2 10.7 2.1-4.3 6-8 11-11.5 16-1.5 2.3-2.7 4.8-4.1 7.2 0 0 0.2-0.2 0.2-0.2z"/>
			<path id="&lt;Path&gt;" className="s0" d="m351.9 37.8c3.9-5.6 7.1-10.2 10.4-14.9q1-1.4 2.1-2.8c6.1-7.9 6.2-7.9 17.4-3.9-2.6 3.7-5 7.3-7.5 10.7-1.7 2.2-2.9 4.3-2.9 7.4-0.1 4.9-2.3 6.3-7.3 5.5-3.7-0.6-7.3-1.2-12.2-2z"/>
			<path id="&lt;Path&gt;" className="s0" d="m410.9 197.2c5.1-6.5 9.9-12.5 15-18.9q9.3 6.5 18.4 12.9c-4.2 2.5-26.1 6.7-33.4 6z"/>
			<path id="&lt;Path&gt;" className="s0" d="m552.6 237.9c4.8-7.6 9.2-14.6 13.6-21.5 3.4-5.4 8.4-3.1 14-3-1.9 3.1-3.2 5.4-4.7 7.6-2.2 3.3-5 6.3-6.5 9.8-3 7.4-8.2 9.3-16.4 7.1z"/>
			<path id="&lt;Path&gt;" className="s0" d="m1191.4 247.3c7.2-8.1 14.4-16.1 22.2-24.8 1 5.7-0.4 10.5-1.4 15.2-0.3 1.2-1.5 2.4-2.6 3.1-5.4 3.7-11.3 6-17.5 7.7q-0.4-0.6-0.7-1.2z"/>
			<path id="&lt;Path&gt;" className="s0" d="m295 29.9c-3.5-5.7-6.5-10.8-9.9-16.3 6 0 11.7 0 18.3 0-2.8 5.4-5.4 10.5-8.4 16.3z"/>
			<path id="&lt;Path&gt;" className="s0" d="m403.4 110.4c5.5-7.4 10.9-14.8 17-23-0.1 9.3-7.4 19.8-15.7 24.1q-0.6-0.5-1.3-1.1z"/>
			<path id="&lt;Path&gt;" className="s0" d="m604.3 200.2c2.3-3.8 4.2-6.8 6.4-10.2 2.2 8.9 1 11-6.4 10.2z"/>
			<path id="&lt;Path&gt;" className="s0" d="m339.6 103c3.7 0 6.3 0 10 0-1.7 3-3 5.3-5 8.7-1.9-3.4-3.3-5.7-5-8.7z"/>
			<path id="&lt;Path&gt;" className="s0" d="m491.2 20.6c-1.9-1.7-3.3-3-5.5-5.1 2.8 0 4.5 0 6.7 0-0.4 1.7-0.7 3.1-1.2 5.1z"/>
			<path id="&lt;Path&gt;" className="s0" d="m346.5 195.9c-2.9 0-4.4 0-6.6 0 1-1.5 1.7-2.4 2.3-3.3 1.1 0.8 2.2 1.6 4.3 3.3z"/>
			<path id="&lt;Path&gt;" className="s0" d="m612.1 58.7c-3.4-3.1-4-5-0.5-7.7 0.1 2.6 0.3 4.5 0.5 7.7z"/>
			<path id="&lt;Path&gt;" className="s0" d="m1079 113.8c3.4 8.8 2.5 19.2 13.9 22.7 0-4 0-7.5 0-11.1q0.4-0.1 0.8-0.2c0.5 1 1.3 1.9 1.4 2.9 0.4 6.7 3.2 12.5 5.8 18.5 1.6 3.5 3.2 7.6 2.9 11.2-0.7 8-2.5 15.9-3.9 23.9q-0.7-0.1-1.5-0.1c0-1.7 0-3.3 0.1-5 0.5-9.9-4.6-16.2-13.1-20.2-2.7-1.3-5.6-2.1-8.4-3.3-2.3-0.9-4.4-2-6.3-3.6 10.4 2.9 21.4 4.4 28.3 14.5 2.8-8.5-0.3-20.3-7.2-23.8-11.1-5.5-12.6-15-12.8-26.4z"/>
			<path id="&lt;Path&gt;" className="s0" d="m1070 62.9c1.2 1.8 2.7 3.9 4.7 6.7 3.7-8.9 4.8-17.3 2.5-26.9 4.1 6.5 5.1 11.9 3.5 19.4-1 4.2-2.4 8.4-3.7 12.6-3.1 9.2-3.1 9.2 1.1 17.6-3.9-2-5.8-4.8-6.2-9.1-0.6-6.8-1.3-13.6-1.9-20.3z"/>
			<path id="&lt;Path&gt;" className="s0" d="m1054.6 151.5c0.5 1 1.3 2 1.6 3 2.1 7.4 7 11.7 14.3 13.8 7.2 2 13.2 5.9 17.1 12.7-6.7-5.1-14.2-8.3-22.1-11-7.4-2.6-9.7-6.8-10.9-18.5z"/>
			<path id="&lt;Path&gt;" className="s0" d="m1044.5 93.8c1.1 7.9 5.7 12.7 12.2 16.1 5.6 3 10.2 7.1 12.7 13.5-0.9-0.7-1.8-1.5-2.7-2.2-4.9-3.5-9.7-7.1-14.6-10.5-6-4.1-9.6-9.3-7.6-16.9z"/>
			<path id="&lt;Path&gt;" className="s0" d="m1134.8 124.5q0 8.1 0 16.1c7.9 1.9 11.8-3.3 16.3-8.9-2.6 9-3.1 9.4-16.9 13.7-4.3 8.5-0.6 16.2 2.9 24.7 1.2-1.6 2.1-2.8 2.9-3.9 3.5-5.2 8.3-8.7 13.9-11.4 7-3.3 14.2-6.5 17.9-14.2-1.1 5.3-3.9 9.2-8.6 11.8-3.9 2.2-7.9 4.1-11.6 6.4-8.6 5.3-13.9 12.3-11.4 23.1 0.2 0.6-0.1 1.3-0.4 3.7-3.9-9.9-7.6-18.2-10.4-26.8-1.1-3.3-0.6-7.4 0-11 1.2-7.7 3-15.4 4.6-23.1q0.4-0.1 0.8-0.2z"/>
			<path id="&lt;Path&gt;" className="s0" d="m1151.4 82.3c4.5-5.4 3.9-10.6 1-16.3-1.8-3.7-2.8-7.8-4.1-11.8-1.9-5.4-0.4-10.4 2.4-15.3-1.6 8.1 0.2 15.5 4 23 2.2-2.8 4.1-5.5 6.1-8.1-2.1 6.3-4.4 12.1-2.9 18.9 0.8 3.5-1.8 6.7-6.5 9.6z"/>
			<path id="&lt;Path&gt;" className="s0" d="m1152.2 177.9c2.8-4.5 6.3-6.9 10.3-8.1 7.1-2.4 13.2-5.6 16-13.2 0.6 6.7-2.1 11.2-8.2 13.7-5.7 2.4-11.3 4.8-18.1 7.6z"/>
			<path id="&lt;Path&gt;" className="s0" d="m1188 96.6c-7.1 2.1-11.2 6.9-13.5 13.8-1.5 4.3-4.4 7.9-9.2 10.3 3.2-6.2 5.8-12.2 9.1-17.9 2.9-5 7.8-6.8 13.6-6.2z"/>
			<path id="&lt;Path&gt;" className="s0" d="m1169 87.2c0.3 5-2.2 8.2-6 10.2-5.8 3-11.9 5.6-18.6 8.7 2.9-4.9 7-7.1 11.2-8.6 5.7-2 10.5-4.8 13.4-10.3z"/>
		</g>
	</g>
</svg>